<svg xmlns="http://www.w3.org/2000/svg" viewBox="0 0 300 400" fill="none">
  <!-- 右下角竹枝装饰 -->
  <defs>
    <linearGradient id="bambooGrad" x1="0%" y1="0%" x2="100%" y2="100%">
      <stop offset="0%" stop-color="#2c3e50" stop-opacity="0.15"/>
      <stop offset="100%" stop-color="#2c3e50" stop-opacity="0.05"/>
    </linearGradient>
  </defs>
  
  <!-- 竹竿 -->
  <path d="M280 400 Q275 350 270 300 Q265 250 260 200 Q258 150 255 100" 
        stroke="url(#bambooGrad)" stroke-width="4" fill="none" stroke-linecap="round"/>
  <path d="M260 400 Q258 380 255 360 Q250 320 248 280" 
        stroke="url(#bambooGrad)" stroke-width="3" fill="none" stroke-linecap="round"/>
  
  <!-- 竹节 -->
  <line x1="267" y1="320" x2="273" y2="318" stroke="#2c3e50" stroke-width="1.5" stroke-opacity="0.12"/>
  <line x1="262" y1="250" x2="268" y2="248" stroke="#2c3e50" stroke-width="1.5" stroke-opacity="0.1"/>
  <line x1="258" y1="180" x2="264" y2="178" stroke="#2c3e50" stroke-width="1.5" stroke-opacity="0.08"/>
  
  <!-- 竹叶 - 使用书法笔触 -->
  <g fill="#2c3e50" opacity="0.1">
    <!-- 叶片组1 -->
    <path d="M260 200 Q240 190 220 195 Q240 200 260 200"/>
    <path d="M258 205 Q235 215 215 210 Q238 212 258 205"/>
    <path d="M262 195 Q280 185 295 190 Q278 195 262 195"/>
    
    <!-- 叶片组2 -->
    <path d="M255 140 Q230 135 210 140 Q232 142 255 140"/>
    <path d="M257 145 Q275 140 290 145 Q273 148 257 145"/>
    <path d="M253 135 Q235 125 218 130 Q237 132 253 135"/>
    
    <!-- 叶片组3 -->
    <path d="M270 320 Q245 310 225 315 Q248 318 270 320"/>
    <path d="M268 330 Q290 325 305 332 Q288 335 268 330"/>
  </g>
</svg>
